<svg width="47" height="57" viewBox="0 0 47 57" fill="none" xmlns="http://www.w3.org/2000/svg">
<g clip-path="url(#clip0_5_42)">
<rect x="3" y="5.37036" width="35.6296" height="35.6296" rx="7" fill="url(#paint0_linear_5_42)"/>
<g filter="url(#filter0_d_5_42)">
<path d="M16.46 22.86H17.6L20.6 27H19.34L16.46 22.86ZM14.96 18.6H15.98V27H14.96V18.6ZM15.524 19.5V18.6H17.24C17.784 18.6 18.268 18.704 18.692 18.912C19.124 19.112 19.464 19.4 19.712 19.776C19.968 20.152 20.096 20.6 20.096 21.12C20.096 21.632 19.968 22.08 19.712 22.464C19.464 22.84 19.124 23.132 18.692 23.34C18.268 23.54 17.784 23.64 17.24 23.64H15.524V22.74H17.24C17.6 22.74 17.916 22.676 18.188 22.548C18.468 22.42 18.684 22.236 18.836 21.996C18.996 21.756 19.076 21.464 19.076 21.12C19.076 20.776 18.996 20.484 18.836 20.244C18.684 20.004 18.468 19.82 18.188 19.692C17.916 19.564 17.6 19.5 17.24 19.5H15.524ZM24.1948 27.12C23.5708 27.12 23.0428 27.036 22.6108 26.868C22.1788 26.7 21.8468 26.452 21.6148 26.124C21.3908 25.788 21.2788 25.364 21.2788 24.852C21.2788 24.7 21.2908 24.556 21.3148 24.42C21.3388 24.276 21.3708 24.144 21.4108 24.024H20.8468V23.256H21.8548C22.0148 23.096 22.2268 22.952 22.4908 22.824C22.7628 22.688 23.0428 22.568 23.3308 22.464C23.6268 22.36 23.8868 22.272 24.1108 22.2C24.3348 22.12 24.4788 22.064 24.5428 22.032H20.8468V21.264H25.4308C25.4948 21.152 25.5388 21.036 25.5628 20.916C25.5948 20.796 25.6108 20.644 25.6108 20.46C25.6108 20.212 25.5548 20 25.4428 19.824C25.3308 19.64 25.1588 19.5 24.9268 19.404C24.6948 19.308 24.3948 19.26 24.0268 19.26C23.7628 19.26 23.5068 19.284 23.2588 19.332C23.0188 19.38 22.7908 19.444 22.5748 19.524C22.3668 19.596 22.1708 19.676 21.9868 19.764L21.6868 18.816C21.9908 18.672 22.3628 18.552 22.8028 18.456C23.2428 18.36 23.6708 18.312 24.0868 18.312C24.6308 18.312 25.0948 18.388 25.4788 18.54C25.8708 18.684 26.1708 18.904 26.3788 19.2C26.5948 19.496 26.7028 19.872 26.7028 20.328C26.7028 20.496 26.6908 20.664 26.6668 20.832C26.6428 20.992 26.5988 21.136 26.5348 21.264H27.1948V22.032H26.1508C26.0228 22.16 25.8228 22.292 25.5508 22.428C25.2788 22.556 24.9948 22.676 24.6988 22.788C24.4028 22.9 24.1348 22.996 23.8948 23.076C23.6548 23.156 23.4988 23.216 23.4268 23.256H27.1948V24.024H22.5268C22.4628 24.144 22.4188 24.256 22.3948 24.36C22.3708 24.464 22.3588 24.608 22.3588 24.792C22.3588 25.104 22.4308 25.364 22.5748 25.572C22.7188 25.772 22.9348 25.924 23.2228 26.028C23.5108 26.132 23.8668 26.184 24.2908 26.184C24.7468 26.184 25.1868 26.128 25.6108 26.016C26.0428 25.896 26.4028 25.772 26.6908 25.644V26.616C26.4188 26.744 26.0548 26.86 25.5988 26.964C25.1428 27.068 24.6748 27.12 24.1948 27.12Z" fill="white"/>
</g>
</g>
<path d="M3.435 46.585H4.1L5.85 49H5.115L3.435 46.585ZM2.56 44.1H3.155V49H2.56V44.1ZM2.889 44.625V44.1H3.89C4.20733 44.1 4.48967 44.1607 4.737 44.282C4.989 44.3987 5.18733 44.5667 5.332 44.786C5.48133 45.0053 5.556 45.2667 5.556 45.57C5.556 45.8687 5.48133 46.13 5.332 46.354C5.18733 46.5733 4.989 46.7437 4.737 46.865C4.48967 46.9817 4.20733 47.04 3.89 47.04H2.889V46.515H3.89C4.1 46.515 4.28433 46.4777 4.443 46.403C4.60633 46.3283 4.73233 46.221 4.821 46.081C4.91433 45.941 4.961 45.7707 4.961 45.57C4.961 45.3693 4.91433 45.199 4.821 45.059C4.73233 44.919 4.60633 44.8117 4.443 44.737C4.28433 44.6623 4.1 44.625 3.89 44.625H2.889ZM7.68799 49.07C7.38933 49.07 7.12333 49 6.88999 48.86C6.66133 48.7153 6.48166 48.517 6.35099 48.265C6.22499 48.013 6.16199 47.7213 6.16199 47.39C6.16199 47.054 6.22733 46.76 6.35799 46.508C6.49333 46.256 6.67999 46.06 6.91799 45.92C7.16066 45.78 7.44066 45.71 7.75799 45.71C8.07533 45.71 8.34599 45.7777 8.56999 45.913C8.79866 46.0437 8.97366 46.2327 9.09499 46.48C9.21633 46.7273 9.27699 47.0213 9.27699 47.362C9.27699 47.3947 9.27466 47.4297 9.26999 47.467C9.26999 47.4997 9.26999 47.5207 9.26999 47.53H6.51899V47.054H8.82899L8.60499 47.376C8.61899 47.3527 8.63299 47.3177 8.64699 47.271C8.66099 47.2197 8.66799 47.1777 8.66799 47.145C8.66799 46.9537 8.62833 46.788 8.54899 46.648C8.47433 46.508 8.36933 46.3983 8.23399 46.319C8.09866 46.2397 7.93999 46.2 7.75799 46.2C7.54333 46.2 7.35899 46.2467 7.20499 46.34C7.05566 46.4287 6.93899 46.5593 6.85499 46.732C6.77566 46.9 6.73366 47.1077 6.72899 47.355C6.72899 47.607 6.76866 47.8217 6.84799 47.999C6.92733 48.1763 7.04399 48.3117 7.19799 48.405C7.35199 48.4983 7.53866 48.545 7.75799 48.545C7.97733 48.545 8.17099 48.4983 8.33899 48.405C8.50699 48.307 8.64933 48.16 8.76599 47.964L9.22099 48.251C9.05299 48.5217 8.84066 48.727 8.58399 48.867C8.33199 49.0023 8.03333 49.07 7.68799 49.07ZM10.5695 50.54H10.0095V45.78H10.5695V50.54ZM13.2645 47.39C13.2645 47.7353 13.1922 48.034 13.0475 48.286C12.9029 48.538 12.7092 48.7317 12.4665 48.867C12.2285 49.0023 11.9625 49.07 11.6685 49.07C11.4025 49.07 11.1669 49.0023 10.9615 48.867C10.7609 48.7317 10.6022 48.538 10.4855 48.286C10.3735 48.034 10.3175 47.7353 10.3175 47.39C10.3175 47.04 10.3735 46.7413 10.4855 46.494C10.6022 46.242 10.7609 46.0483 10.9615 45.913C11.1669 45.7777 11.4025 45.71 11.6685 45.71C11.9625 45.71 12.2285 45.7777 12.4665 45.913C12.7092 46.0483 12.9029 46.242 13.0475 46.494C13.1922 46.7413 13.2645 47.04 13.2645 47.39ZM12.6975 47.39C12.6975 47.1427 12.6462 46.9327 12.5435 46.76C12.4455 46.5873 12.3125 46.4567 12.1445 46.368C11.9812 46.2793 11.7992 46.235 11.5985 46.235C11.4352 46.235 11.2742 46.2793 11.1155 46.368C10.9569 46.4567 10.8262 46.5873 10.7235 46.76C10.6209 46.9327 10.5695 47.1427 10.5695 47.39C10.5695 47.6373 10.6209 47.8473 10.7235 48.02C10.8262 48.1927 10.9569 48.3233 11.1155 48.412C11.2742 48.5007 11.4352 48.545 11.5985 48.545C11.7992 48.545 11.9812 48.5007 12.1445 48.412C12.3125 48.3233 12.4455 48.1927 12.5435 48.02C12.6462 47.8473 12.6975 47.6373 12.6975 47.39ZM13.7567 47.39C13.7567 47.0633 13.8291 46.774 13.9737 46.522C14.1231 46.27 14.3237 46.0717 14.5757 45.927C14.8277 45.7823 15.1101 45.71 15.4227 45.71C15.7401 45.71 16.0224 45.7823 16.2697 45.927C16.5217 46.0717 16.7201 46.27 16.8647 46.522C17.0141 46.774 17.0887 47.0633 17.0887 47.39C17.0887 47.712 17.0141 48.0013 16.8647 48.258C16.7201 48.51 16.5217 48.7083 16.2697 48.853C16.0224 48.9977 15.7401 49.07 15.4227 49.07C15.1101 49.07 14.8277 48.9977 14.5757 48.853C14.3237 48.7083 14.1231 48.51 13.9737 48.258C13.8291 48.0013 13.7567 47.712 13.7567 47.39ZM14.3237 47.39C14.3237 47.614 14.3704 47.8123 14.4637 47.985C14.5617 48.1577 14.6924 48.2953 14.8557 48.398C15.0237 48.496 15.2127 48.545 15.4227 48.545C15.6327 48.545 15.8194 48.496 15.9827 48.398C16.1507 48.2953 16.2814 48.1577 16.3747 47.985C16.4727 47.8123 16.5217 47.614 16.5217 47.39C16.5217 47.166 16.4727 46.9677 16.3747 46.795C16.2814 46.6177 16.1507 46.48 15.9827 46.382C15.8194 46.284 15.6327 46.235 15.4227 46.235C15.2127 46.235 15.0237 46.284 14.8557 46.382C14.6924 46.48 14.5617 46.6177 14.4637 46.795C14.3704 46.9677 14.3237 47.166 14.3237 47.39ZM18.418 45.78V49H17.858V45.78H18.418ZM19.391 46.396C19.3163 46.34 19.2487 46.3003 19.188 46.277C19.1273 46.249 19.0503 46.235 18.957 46.235C18.817 46.235 18.7073 46.27 18.628 46.34C18.5487 46.41 18.4927 46.5057 18.46 46.627C18.432 46.7483 18.418 46.886 18.418 47.04H18.166C18.166 46.7833 18.2103 46.557 18.299 46.361C18.3923 46.1603 18.5113 46.0017 18.656 45.885C18.8007 45.7683 18.9477 45.71 19.097 45.71C19.2137 45.71 19.321 45.7263 19.419 45.759C19.5217 45.787 19.615 45.8453 19.699 45.934L19.391 46.396ZM19.7674 45.78H21.3774V46.305H19.7674V45.78ZM20.2924 44.66H20.8524V49H20.2924V44.66ZM24.2897 48.006C24.2897 48.1273 24.3177 48.2323 24.3737 48.321C24.4344 48.4097 24.516 48.4773 24.6187 48.524C24.726 48.566 24.8474 48.587 24.9827 48.587C25.1554 48.587 25.3094 48.552 25.4447 48.482C25.5847 48.412 25.6944 48.314 25.7737 48.188C25.8577 48.0573 25.8997 47.908 25.8997 47.74L26.0117 48.16C26.0117 48.3653 25.9487 48.5357 25.8227 48.671C25.7014 48.8063 25.5497 48.9067 25.3677 48.972C25.1904 49.0373 25.013 49.07 24.8357 49.07C24.6397 49.07 24.4554 49.0303 24.2827 48.951C24.1147 48.867 23.9794 48.748 23.8767 48.594C23.774 48.44 23.7227 48.2533 23.7227 48.034C23.7227 47.7213 23.8324 47.4717 24.0517 47.285C24.2757 47.0937 24.586 46.998 24.9827 46.998C25.216 46.998 25.4097 47.026 25.5637 47.082C25.7224 47.1333 25.8484 47.194 25.9417 47.264C26.035 47.3293 26.098 47.383 26.1307 47.425V47.754C25.9674 47.642 25.7994 47.5627 25.6267 47.516C25.454 47.4647 25.2697 47.439 25.0737 47.439C24.8917 47.439 24.7424 47.4623 24.6257 47.509C24.5137 47.5557 24.4297 47.621 24.3737 47.705C24.3177 47.789 24.2897 47.8893 24.2897 48.006ZM24.2057 46.522L23.9327 46.109C24.054 46.0203 24.2197 45.9317 24.4297 45.843C24.6444 45.7543 24.901 45.71 25.1997 45.71C25.4517 45.71 25.671 45.7497 25.8577 45.829C26.049 45.9037 26.196 46.0133 26.2987 46.158C26.406 46.3027 26.4597 46.48 26.4597 46.69V49H25.8997V46.767C25.8997 46.655 25.881 46.564 25.8437 46.494C25.8064 46.4193 25.7527 46.361 25.6827 46.319C25.6174 46.277 25.5404 46.2467 25.4517 46.228C25.363 46.2093 25.2697 46.2 25.1717 46.2C25.013 46.2 24.8684 46.2187 24.7377 46.256C24.6117 46.2933 24.5044 46.3377 24.4157 46.389C24.327 46.4403 24.257 46.4847 24.2057 46.522ZM30.0314 43.54V49H29.4714V43.54H30.0314ZM32.7264 47.39C32.7264 47.7353 32.6541 48.034 32.5094 48.286C32.3648 48.538 32.1711 48.7317 31.9284 48.867C31.6904 49.0023 31.4244 49.07 31.1304 49.07C30.8644 49.07 30.6288 49.0023 30.4234 48.867C30.2228 48.7317 30.0641 48.538 29.9474 48.286C29.8354 48.034 29.7794 47.7353 29.7794 47.39C29.7794 47.04 29.8354 46.7413 29.9474 46.494C30.0641 46.242 30.2228 46.0483 30.4234 45.913C30.6288 45.7777 30.8644 45.71 31.1304 45.71C31.4244 45.71 31.6904 45.7777 31.9284 45.913C32.1711 46.0483 32.3648 46.242 32.5094 46.494C32.6541 46.7413 32.7264 47.04 32.7264 47.39ZM32.1594 47.39C32.1594 47.1427 32.1081 46.9327 32.0054 46.76C31.9074 46.5873 31.7744 46.4567 31.6064 46.368C31.4431 46.2793 31.2611 46.235 31.0604 46.235C30.8971 46.235 30.7361 46.2793 30.5774 46.368C30.4188 46.4567 30.2881 46.5873 30.1854 46.76C30.0828 46.9327 30.0314 47.1427 30.0314 47.39C30.0314 47.6373 30.0828 47.8473 30.1854 48.02C30.2881 48.1927 30.4188 48.3233 30.5774 48.412C30.7361 48.5007 30.8971 48.545 31.0604 48.545C31.2611 48.545 31.4431 48.5007 31.6064 48.412C31.7744 48.3233 31.9074 48.1927 32.0054 48.02C32.1081 47.8473 32.1594 47.6373 32.1594 47.39ZM34.0586 47.74C34.0586 47.9967 34.117 48.195 34.2336 48.335C34.3503 48.475 34.5206 48.545 34.7446 48.545C34.908 48.545 35.0503 48.5123 35.1716 48.447C35.2976 48.377 35.3933 48.2813 35.4586 48.16C35.5286 48.0387 35.5636 47.8987 35.5636 47.74V45.78H36.1236V49H35.5636V48.496C35.4563 48.6873 35.3233 48.832 35.1646 48.93C35.006 49.0233 34.8193 49.07 34.6046 49.07C34.2686 49.07 34.0003 48.9557 33.7996 48.727C33.599 48.4983 33.4986 48.1927 33.4986 47.81V45.78H34.0586V47.74ZM36.9594 49.21H37.5264C37.5264 49.364 37.5684 49.5063 37.6524 49.637C37.7364 49.7723 37.8554 49.8797 38.0094 49.959C38.1634 50.043 38.3454 50.085 38.5554 50.085C38.7187 50.085 38.8797 50.0453 39.0384 49.966C39.197 49.8867 39.3277 49.7607 39.4304 49.588C39.5377 49.42 39.5914 49.2007 39.5914 48.93V45.78H40.1514V48.93C40.1514 49.2987 40.0744 49.6067 39.9204 49.854C39.7664 50.106 39.568 50.295 39.3254 50.421C39.0827 50.547 38.826 50.61 38.5554 50.61C38.2427 50.61 37.965 50.5517 37.7224 50.435C37.4844 50.3183 37.2977 50.1527 37.1624 49.938C37.027 49.728 36.9594 49.4853 36.9594 49.21ZM36.8964 47.39C36.8964 47.04 36.9687 46.7413 37.1134 46.494C37.258 46.242 37.4517 46.0483 37.6944 45.913C37.937 45.7777 38.203 45.71 38.4924 45.71C38.763 45.71 38.9987 45.7777 39.1994 45.913C39.4 46.0483 39.5564 46.242 39.6684 46.494C39.785 46.7413 39.8434 47.04 39.8434 47.39C39.8434 47.7353 39.785 48.034 39.6684 48.286C39.5564 48.538 39.4 48.7317 39.1994 48.867C38.9987 49.0023 38.763 49.07 38.4924 49.07C38.203 49.07 37.937 49.0023 37.6944 48.867C37.4517 48.7317 37.258 48.538 37.1134 48.286C36.9687 48.034 36.8964 47.7353 36.8964 47.39ZM37.4634 47.39C37.4634 47.6373 37.5124 47.8473 37.6104 48.02C37.713 48.1927 37.8484 48.3233 38.0164 48.412C38.1844 48.5007 38.3664 48.545 38.5624 48.545C38.7257 48.545 38.8867 48.5007 39.0454 48.412C39.204 48.3233 39.3347 48.1927 39.4374 48.02C39.54 47.8473 39.5914 47.6373 39.5914 47.39C39.5914 47.2033 39.561 47.04 39.5004 46.9C39.4397 46.7553 39.358 46.634 39.2554 46.536C39.1574 46.438 39.0477 46.3633 38.9264 46.312C38.805 46.2607 38.6837 46.235 38.5624 46.235C38.3664 46.235 38.1844 46.2793 38.0164 46.368C37.8484 46.4567 37.713 46.5873 37.6104 46.76C37.5124 46.9327 37.4634 47.1427 37.4634 47.39Z" fill="white"/>
<defs>
<filter id="filter0_d_5_42" x="13.16" y="18.312" width="15.8349" height="14.608" filterUnits="userSpaceOnUse" color-interpolation-filters="sRGB">
<feFlood flood-opacity="0" result="BackgroundImageFix"/>
<feColorMatrix in="SourceAlpha" type="matrix" values="0 0 0 0 0 0 0 0 0 0 0 0 0 0 0 0 0 0 127 0" result="hardAlpha"/>
<feOffset dy="4"/>
<feGaussianBlur stdDeviation="0.9"/>
<feComposite in2="hardAlpha" operator="out"/>
<feColorMatrix type="matrix" values="0 0 0 0 0 0 0 0 0 0 0 0 0 0 0 0 0 0 0.25 0"/>
<feBlend mode="normal" in2="BackgroundImageFix" result="effect1_dropShadow_5_42"/>
<feBlend mode="normal" in="SourceGraphic" in2="effect1_dropShadow_5_42" result="shape"/>
</filter>
<linearGradient id="paint0_linear_5_42" x1="6" y1="7" x2="35.5" y2="38.5" gradientUnits="userSpaceOnUse">
<stop stop-color="#282828"/>
<stop offset="0.763736" stop-color="#8E8E8E"/>
</linearGradient>
<clipPath id="clip0_5_42">
<rect width="37" height="37" fill="white" transform="translate(3 4)"/>
</clipPath>
</defs>
</svg>
