<svg width="47" height="57" viewBox="0 0 47 57" fill="none" xmlns="http://www.w3.org/2000/svg">
<g clip-path="url(#clip0_5_58)">
<rect x="3" y="5.37036" width="35.6296" height="35.6296" rx="7" fill="url(#paint0_linear_5_58)"/>
<path d="M16.8 20.4H18.4V29H16.8V20.4ZM15.6 19.8H25V21.3H15.6V19.8ZM21.8 20.4H23.4V26.18C23.4 26.62 23.4467 26.94 23.54 27.14C23.6333 27.3267 23.76 27.4467 23.92 27.5C24.08 27.5533 24.26 27.58 24.46 27.58V29.18C23.9 29.18 23.42 29.1133 23.02 28.98C22.6333 28.8467 22.3333 28.5933 22.12 28.22C21.9067 27.8467 21.8 27.3 21.8 26.58V20.4Z" fill="white"/>
</g>
<path d="M11.239 45.689L10.875 49H10.28L10.875 43.855L12.835 47.404L14.795 43.855L15.39 49H14.795L14.431 45.689L12.835 48.545L11.239 45.689ZM16.444 48.006C16.444 48.1273 16.472 48.2323 16.528 48.321C16.5887 48.4097 16.6703 48.4773 16.773 48.524C16.8803 48.566 17.0017 48.587 17.137 48.587C17.3097 48.587 17.4637 48.552 17.599 48.482C17.739 48.412 17.8487 48.314 17.928 48.188C18.012 48.0573 18.054 47.908 18.054 47.74L18.166 48.16C18.166 48.3653 18.103 48.5357 17.977 48.671C17.8557 48.8063 17.704 48.9067 17.522 48.972C17.3447 49.0373 17.1673 49.07 16.99 49.07C16.794 49.07 16.6097 49.0303 16.437 48.951C16.269 48.867 16.1337 48.748 16.031 48.594C15.9283 48.44 15.877 48.2533 15.877 48.034C15.877 47.7213 15.9867 47.4717 16.206 47.285C16.43 47.0937 16.7403 46.998 17.137 46.998C17.3703 46.998 17.564 47.026 17.718 47.082C17.8767 47.1333 18.0027 47.194 18.096 47.264C18.1893 47.3293 18.2523 47.383 18.285 47.425V47.754C18.1217 47.642 17.9537 47.5627 17.781 47.516C17.6083 47.4647 17.424 47.439 17.228 47.439C17.046 47.439 16.8967 47.4623 16.78 47.509C16.668 47.5557 16.584 47.621 16.528 47.705C16.472 47.789 16.444 47.8893 16.444 48.006ZM16.36 46.522L16.087 46.109C16.2083 46.0203 16.374 45.9317 16.584 45.843C16.7987 45.7543 17.0553 45.71 17.354 45.71C17.606 45.71 17.8253 45.7497 18.012 45.829C18.2033 45.9037 18.3503 46.0133 18.453 46.158C18.5603 46.3027 18.614 46.48 18.614 46.69V49H18.054V46.767C18.054 46.655 18.0353 46.564 17.998 46.494C17.9607 46.4193 17.907 46.361 17.837 46.319C17.7717 46.277 17.6947 46.2467 17.606 46.228C17.5173 46.2093 17.424 46.2 17.326 46.2C17.1673 46.2 17.0227 46.2187 16.892 46.256C16.766 46.2933 16.6587 46.3377 16.57 46.389C16.4813 46.4403 16.4113 46.4847 16.36 46.522ZM19.0721 45.78H20.6821V46.305H19.0721V45.78ZM19.5971 44.66H20.1571V49H19.5971V44.66ZM21.8038 43.54V49H21.2438V43.54H21.8038ZM23.3088 47.04C23.3088 46.774 23.2504 46.5733 23.1338 46.438C23.0218 46.3027 22.8514 46.235 22.6228 46.235C22.4594 46.235 22.3148 46.27 22.1888 46.34C22.0674 46.41 21.9718 46.5057 21.9018 46.627C21.8364 46.7483 21.8038 46.886 21.8038 47.04H21.6218C21.6218 46.7833 21.6708 46.557 21.7688 46.361C21.8668 46.1603 21.9998 46.0017 22.1678 45.885C22.3404 45.7683 22.5388 45.71 22.7628 45.71C22.9868 45.71 23.1804 45.7567 23.3438 45.85C23.5118 45.9433 23.6401 46.0833 23.7288 46.27C23.8221 46.4567 23.8688 46.69 23.8688 46.97V49H23.3088V47.04ZM26.1675 49.07C25.8688 49.07 25.6028 49 25.3695 48.86C25.1408 48.7153 24.9612 48.517 24.8305 48.265C24.7045 48.013 24.6415 47.7213 24.6415 47.39C24.6415 47.054 24.7068 46.76 24.8375 46.508C24.9728 46.256 25.1595 46.06 25.3975 45.92C25.6402 45.78 25.9202 45.71 26.2375 45.71C26.5548 45.71 26.8255 45.7777 27.0495 45.913C27.2782 46.0437 27.4532 46.2327 27.5745 46.48C27.6958 46.7273 27.7565 47.0213 27.7565 47.362C27.7565 47.3947 27.7542 47.4297 27.7495 47.467C27.7495 47.4997 27.7495 47.5207 27.7495 47.53H24.9985V47.054H27.3085L27.0845 47.376C27.0985 47.3527 27.1125 47.3177 27.1265 47.271C27.1405 47.2197 27.1475 47.1777 27.1475 47.145C27.1475 46.9537 27.1078 46.788 27.0285 46.648C26.9538 46.508 26.8488 46.3983 26.7135 46.319C26.5782 46.2397 26.4195 46.2 26.2375 46.2C26.0228 46.2 25.8385 46.2467 25.6845 46.34C25.5352 46.4287 25.4185 46.5593 25.3345 46.732C25.2552 46.9 25.2132 47.1077 25.2085 47.355C25.2085 47.607 25.2482 47.8217 25.3275 47.999C25.4068 48.1763 25.5235 48.3117 25.6775 48.405C25.8315 48.4983 26.0182 48.545 26.2375 48.545C26.4568 48.545 26.6505 48.4983 26.8185 48.405C26.9865 48.307 27.1288 48.16 27.2455 47.964L27.7005 48.251C27.5325 48.5217 27.3202 48.727 27.0635 48.867C26.8115 49.0023 26.5128 49.07 26.1675 49.07ZM29.084 45.78V49H28.524V45.78H29.084ZM30.057 46.396C29.9824 46.34 29.9147 46.3003 29.854 46.277C29.7934 46.249 29.7164 46.235 29.623 46.235C29.483 46.235 29.3734 46.27 29.294 46.34C29.2147 46.41 29.1587 46.5057 29.126 46.627C29.098 46.7483 29.084 46.886 29.084 47.04H28.832C28.832 46.7833 28.8764 46.557 28.965 46.361C29.0584 46.1603 29.1774 46.0017 29.322 45.885C29.4667 45.7683 29.6137 45.71 29.763 45.71C29.8797 45.71 29.987 45.7263 30.085 45.759C30.1877 45.787 30.281 45.8453 30.365 45.934L30.057 46.396Z" fill="white"/>
<defs>
<linearGradient id="paint0_linear_5_58" x1="6" y1="7" x2="35.5" y2="38.5" gradientUnits="userSpaceOnUse">
<stop stop-color="#FF0000"/>
<stop offset="0.763736" stop-color="#8B3D3D"/>
</linearGradient>
<clipPath id="clip0_5_58">
<rect width="37" height="37" fill="white" transform="translate(3 4)"/>
</clipPath>
</defs>
</svg>
