<svg width="104" height="37" viewBox="0 0 104 37" fill="none" xmlns="http://www.w3.org/2000/svg">
<g clip-path="url(#clip0_5_3)">
<g filter="url(#filter0_f_5_3)">
<rect x="2" y="3" width="98" height="30" rx="11" fill="black" fill-opacity="0.38"/>
<rect x="2.5" y="3.5" width="97" height="29" rx="10.5" stroke="black"/>
</g>
<path d="M46.76 12.8H48.12V24.56L39.64 15.664V24H38.28V12.24L46.76 21.136V12.8ZM49.9663 20.32C49.9663 19.5733 50.1316 18.912 50.4622 18.336C50.8036 17.76 51.2623 17.3067 51.8383 16.976C52.4143 16.6453 53.0596 16.48 53.7743 16.48C54.4996 16.48 55.1449 16.6453 55.7103 16.976C56.2863 17.3067 56.7396 17.76 57.0703 18.336C57.4116 18.912 57.5823 19.5733 57.5823 20.32C57.5823 21.056 57.4116 21.7173 57.0703 22.304C56.7396 22.88 56.2863 23.3333 55.7103 23.664C55.1449 23.9947 54.4996 24.16 53.7743 24.16C53.0596 24.16 52.4143 23.9947 51.8383 23.664C51.2623 23.3333 50.8036 22.88 50.4622 22.304C50.1316 21.7173 49.9663 21.056 49.9663 20.32ZM51.2623 20.32C51.2623 20.832 51.3689 21.2853 51.5823 21.68C51.8063 22.0747 52.1049 22.3893 52.4783 22.624C52.8623 22.848 53.2943 22.96 53.7743 22.96C54.2543 22.96 54.6809 22.848 55.0543 22.624C55.4383 22.3893 55.7369 22.0747 55.9503 21.68C56.1743 21.2853 56.2863 20.832 56.2863 20.32C56.2863 19.808 56.1743 19.3547 55.9503 18.96C55.7369 18.5547 55.4383 18.24 55.0543 18.016C54.6809 17.792 54.2543 17.68 53.7743 17.68C53.2943 17.68 52.8623 17.792 52.4783 18.016C52.1049 18.24 51.8063 18.5547 51.5823 18.96C51.3689 19.3547 51.2623 19.808 51.2623 20.32ZM58.8638 23.36C58.8638 23.1147 58.9491 22.9067 59.1198 22.736C59.3011 22.5653 59.5091 22.48 59.7438 22.48C59.9891 22.48 60.1971 22.5653 60.3678 22.736C60.5384 22.9067 60.6238 23.1147 60.6238 23.36C60.6238 23.5947 60.5384 23.8027 60.3678 23.984C60.1971 24.1547 59.9891 24.24 59.7438 24.24C59.5091 24.24 59.3011 24.1547 59.1198 23.984C58.9491 23.8027 58.8638 23.5947 58.8638 23.36Z" fill="white"/>
</g>
<defs>
<filter id="filter0_f_5_3" x="-0.5" y="0.5" width="103" height="35" filterUnits="userSpaceOnUse" color-interpolation-filters="sRGB">
<feFlood flood-opacity="0" result="BackgroundImageFix"/>
<feBlend mode="normal" in="SourceGraphic" in2="BackgroundImageFix" result="shape"/>
<feGaussianBlur stdDeviation="1.25" result="effect1_foregroundBlur_5_3"/>
</filter>
<clipPath id="clip0_5_3">
<rect width="104" height="37" fill="white"/>
</clipPath>
</defs>
</svg>
