<svg width="378" height="162" viewBox="0 0 378 162" fill="none" xmlns="http://www.w3.org/2000/svg">
<g clip-path="url(#clip0_3_10)">
<g filter="url(#filter0_f_3_10)">
<rect x="2" y="2" width="376" height="155" rx="11" fill="black" fill-opacity="0.38"/>
</g>
<path d="M90.94 33.8L91.54 32.2H97.74L98.34 33.8H90.94ZM94.6 27.16L92.24 32.72L92.08 33.08L90 38H88.1L94.6 23.3L101.1 38H99.2L97.16 33.2L97 32.8L94.6 27.16ZM104.303 28.8V38H102.703V28.8H104.303ZM107.083 30.56C106.87 30.4 106.676 30.2867 106.503 30.22C106.33 30.14 106.11 30.1 105.843 30.1C105.443 30.1 105.13 30.2 104.903 30.4C104.676 30.6 104.516 30.8733 104.423 31.22C104.343 31.5667 104.303 31.96 104.303 32.4H103.583C103.583 31.6667 103.71 31.02 103.963 30.46C104.23 29.8867 104.57 29.4333 104.983 29.1C105.396 28.7667 105.816 28.6 106.243 28.6C106.576 28.6 106.883 28.6467 107.163 28.74C107.456 28.82 107.723 28.9867 107.963 29.24L107.083 30.56ZM112.826 38.2C111.972 38.2 111.212 38 110.546 37.6C109.892 37.1867 109.379 36.62 109.006 35.9C108.646 35.18 108.466 34.3467 108.466 33.4C108.466 32.44 108.652 31.6 109.026 30.88C109.412 30.16 109.946 29.6 110.626 29.2C111.319 28.8 112.119 28.6 113.026 28.6C113.932 28.6 114.706 28.7933 115.346 29.18C115.999 29.5533 116.499 30.0933 116.846 30.8C117.192 31.5067 117.366 32.3467 117.366 33.32C117.366 33.4133 117.359 33.5133 117.346 33.62C117.346 33.7133 117.346 33.7733 117.346 33.8H109.486V32.44H116.086L115.446 33.36C115.486 33.2933 115.526 33.1933 115.566 33.06C115.606 32.9133 115.626 32.7933 115.626 32.7C115.626 32.1533 115.512 31.68 115.286 31.28C115.072 30.88 114.772 30.5667 114.386 30.34C113.999 30.1133 113.546 30 113.026 30C112.412 30 111.886 30.1333 111.446 30.4C111.019 30.6533 110.686 31.0267 110.446 31.52C110.219 32 110.099 32.5933 110.086 33.3C110.086 34.02 110.199 34.6333 110.426 35.14C110.652 35.6467 110.986 36.0333 111.426 36.3C111.866 36.5667 112.399 36.7 113.026 36.7C113.652 36.7 114.206 36.5667 114.686 36.3C115.166 36.02 115.572 35.6 115.906 35.04L117.206 35.86C116.726 36.6333 116.119 37.22 115.386 37.62C114.666 38.0067 113.812 38.2 112.826 38.2ZM132.855 28.8L126.855 42.4H125.055L127.575 36.7L124.055 28.8H125.955L128.875 36L128.215 35.92L131.055 28.8H132.855ZM133.27 33.4C133.27 32.4667 133.477 31.64 133.89 30.92C134.317 30.2 134.89 29.6333 135.61 29.22C136.33 28.8067 137.137 28.6 138.03 28.6C138.937 28.6 139.744 28.8067 140.45 29.22C141.17 29.6333 141.737 30.2 142.15 30.92C142.577 31.64 142.79 32.4667 142.79 33.4C142.79 34.32 142.577 35.1467 142.15 35.88C141.737 36.6 141.17 37.1667 140.45 37.58C139.744 37.9933 138.937 38.2 138.03 38.2C137.137 38.2 136.33 37.9933 135.61 37.58C134.89 37.1667 134.317 36.6 133.89 35.88C133.477 35.1467 133.27 34.32 133.27 33.4ZM134.89 33.4C134.89 34.04 135.024 34.6067 135.29 35.1C135.57 35.5933 135.944 35.9867 136.41 36.28C136.89 36.56 137.43 36.7 138.03 36.7C138.63 36.7 139.164 36.56 139.63 36.28C140.11 35.9867 140.484 35.5933 140.75 35.1C141.03 34.6067 141.17 34.04 141.17 33.4C141.17 32.76 141.03 32.1933 140.75 31.7C140.484 31.1933 140.11 30.8 139.63 30.52C139.164 30.24 138.63 30.1 138.03 30.1C137.43 30.1 136.89 30.24 136.41 30.52C135.944 30.8 135.57 31.1933 135.29 31.7C135.024 32.1933 134.89 32.76 134.89 33.4ZM146.588 34.4C146.588 35.1333 146.755 35.7 147.088 36.1C147.422 36.5 147.908 36.7 148.548 36.7C149.015 36.7 149.422 36.6067 149.768 36.42C150.128 36.22 150.402 35.9467 150.588 35.6C150.788 35.2533 150.888 34.8533 150.888 34.4V28.8H152.488V38H150.888V36.56C150.582 37.1067 150.202 37.52 149.748 37.8C149.295 38.0667 148.762 38.2 148.148 38.2C147.188 38.2 146.422 37.8733 145.848 37.22C145.275 36.5667 144.988 35.6933 144.988 34.6V28.8H146.588V34.4ZM165.052 38.2C164.199 38.2 163.439 38 162.772 37.6C162.119 37.1867 161.606 36.62 161.232 35.9C160.872 35.18 160.692 34.3467 160.692 33.4C160.692 32.44 160.879 31.6 161.252 30.88C161.639 30.16 162.172 29.6 162.852 29.2C163.546 28.8 164.346 28.6 165.252 28.6C166.159 28.6 166.932 28.7933 167.572 29.18C168.226 29.5533 168.726 30.0933 169.072 30.8C169.419 31.5067 169.592 32.3467 169.592 33.32C169.592 33.4133 169.586 33.5133 169.572 33.62C169.572 33.7133 169.572 33.7733 169.572 33.8H161.712V32.44H168.312L167.672 33.36C167.712 33.2933 167.752 33.1933 167.792 33.06C167.832 32.9133 167.852 32.7933 167.852 32.7C167.852 32.1533 167.739 31.68 167.512 31.28C167.299 30.88 166.999 30.5667 166.612 30.34C166.226 30.1133 165.772 30 165.252 30C164.639 30 164.112 30.1333 163.672 30.4C163.246 30.6533 162.912 31.0267 162.672 31.52C162.446 32 162.326 32.5933 162.312 33.3C162.312 34.02 162.426 34.6333 162.652 35.14C162.879 35.6467 163.212 36.0333 163.652 36.3C164.092 36.5667 164.626 36.7 165.252 36.7C165.879 36.7 166.432 36.5667 166.912 36.3C167.392 36.02 167.799 35.6 168.132 35.04L169.432 35.86C168.952 36.6333 168.346 37.22 167.612 37.62C166.892 38.0067 166.039 38.2 165.052 38.2ZM177.685 32.4C177.685 31.64 177.518 31.0667 177.185 30.68C176.852 30.2933 176.365 30.1 175.725 30.1C175.258 30.1 174.845 30.2 174.485 30.4C174.138 30.5867 173.865 30.8533 173.665 31.2C173.478 31.5467 173.385 31.9467 173.385 32.4V38H171.785V28.8H173.385V30.24C173.692 29.68 174.072 29.2667 174.525 29C174.992 28.7333 175.525 28.6 176.125 28.6C177.098 28.6 177.865 28.9267 178.425 29.58C178.998 30.22 179.285 31.0933 179.285 32.2V38H177.685V32.4ZM182.033 25C182.033 24.6933 182.14 24.44 182.353 24.24C182.566 24.0267 182.82 23.92 183.113 23.92C183.42 23.92 183.673 24.0267 183.873 24.24C184.086 24.44 184.193 24.6933 184.193 25C184.193 25.2933 184.086 25.5467 183.873 25.76C183.673 25.9733 183.42 26.08 183.113 26.08C182.82 26.08 182.566 25.9733 182.353 25.76C182.14 25.5467 182.033 25.2933 182.033 25ZM180.453 40.28C180.56 40.44 180.693 40.5667 180.853 40.66C181.026 40.7533 181.22 40.8 181.433 40.8C181.66 40.8 181.84 40.74 181.973 40.62C182.12 40.5 182.226 40.3067 182.293 40.04C182.36 39.7733 182.393 39.4267 182.393 39V28.8H183.993V39.2C183.993 39.8667 183.886 40.44 183.673 40.92C183.473 41.4 183.173 41.7667 182.773 42.02C182.373 42.2733 181.893 42.4 181.333 42.4C181.066 42.4 180.826 42.3667 180.613 42.3C180.4 42.2467 180.206 42.16 180.033 42.04C179.86 41.92 179.706 41.7733 179.573 41.6L180.453 40.28ZM186.493 33.4C186.493 32.4667 186.7 31.64 187.113 30.92C187.54 30.2 188.113 29.6333 188.833 29.22C189.553 28.8067 190.36 28.6 191.253 28.6C192.16 28.6 192.966 28.8067 193.673 29.22C194.393 29.6333 194.96 30.2 195.373 30.92C195.8 31.64 196.013 32.4667 196.013 33.4C196.013 34.32 195.8 35.1467 195.373 35.88C194.96 36.6 194.393 37.1667 193.673 37.58C192.966 37.9933 192.16 38.2 191.253 38.2C190.36 38.2 189.553 37.9933 188.833 37.58C188.113 37.1667 187.54 36.6 187.113 35.88C186.7 35.1467 186.493 34.32 186.493 33.4ZM188.113 33.4C188.113 34.04 188.246 34.6067 188.513 35.1C188.793 35.5933 189.166 35.9867 189.633 36.28C190.113 36.56 190.653 36.7 191.253 36.7C191.853 36.7 192.386 36.56 192.853 36.28C193.333 35.9867 193.706 35.5933 193.973 35.1C194.253 34.6067 194.393 34.04 194.393 33.4C194.393 32.76 194.253 32.1933 193.973 31.7C193.706 31.1933 193.333 30.8 192.853 30.52C192.386 30.24 191.853 30.1 191.253 30.1C190.653 30.1 190.113 30.24 189.633 30.52C189.166 30.8 188.793 31.1933 188.513 31.7C188.246 32.1933 188.113 32.76 188.113 33.4ZM205.218 28.8L199.218 42.4H197.418L199.938 36.7L196.418 28.8H198.318L201.238 36L200.578 35.92L203.418 28.8H205.218ZM212.823 24H214.523V38H212.823V24ZM213.763 25.6V24H216.623C217.529 24 218.336 24.1733 219.043 24.52C219.763 24.8533 220.329 25.3333 220.743 25.96C221.169 26.5867 221.383 27.3333 221.383 28.2C221.383 29.0533 221.169 29.8 220.743 30.44C220.329 31.0667 219.763 31.5533 219.043 31.9C218.336 32.2333 217.529 32.4 216.623 32.4H213.763V30.8H216.623C217.529 30.8 218.263 30.58 218.823 30.14C219.396 29.7 219.683 29.0533 219.683 28.2C219.683 27.3333 219.396 26.6867 218.823 26.26C218.263 25.82 217.529 25.6 216.623 25.6H213.763ZM226.634 38.2C225.781 38.2 225.021 38 224.354 37.6C223.701 37.1867 223.188 36.62 222.814 35.9C222.454 35.18 222.274 34.3467 222.274 33.4C222.274 32.44 222.461 31.6 222.834 30.88C223.221 30.16 223.754 29.6 224.434 29.2C225.128 28.8 225.928 28.6 226.834 28.6C227.741 28.6 228.514 28.7933 229.154 29.18C229.808 29.5533 230.308 30.0933 230.654 30.8C231.001 31.5067 231.174 32.3467 231.174 33.32C231.174 33.4133 231.168 33.5133 231.154 33.62C231.154 33.7133 231.154 33.7733 231.154 33.8H223.294V32.44H229.894L229.254 33.36C229.294 33.2933 229.334 33.1933 229.374 33.06C229.414 32.9133 229.434 32.7933 229.434 32.7C229.434 32.1533 229.321 31.68 229.094 31.28C228.881 30.88 228.581 30.5667 228.194 30.34C227.808 30.1133 227.354 30 226.834 30C226.221 30 225.694 30.1333 225.254 30.4C224.828 30.6533 224.494 31.0267 224.254 31.52C224.028 32 223.908 32.5933 223.894 33.3C223.894 34.02 224.008 34.6333 224.234 35.14C224.461 35.6467 224.794 36.0333 225.234 36.3C225.674 36.5667 226.208 36.7 226.834 36.7C227.461 36.7 228.014 36.5667 228.494 36.3C228.974 36.02 229.381 35.6 229.714 35.04L231.014 35.86C230.534 36.6333 229.928 37.22 229.194 37.62C228.474 38.0067 227.621 38.2 226.634 38.2ZM239.267 32.4C239.267 31.64 239.101 31.0667 238.767 30.68C238.434 30.2933 237.947 30.1 237.307 30.1C236.841 30.1 236.427 30.2 236.067 30.4C235.721 30.5867 235.447 30.8533 235.247 31.2C235.061 31.5467 234.967 31.9467 234.967 32.4V38H233.367V28.8H234.967V30.24C235.274 29.68 235.654 29.2667 236.107 29C236.574 28.7333 237.107 28.6 237.707 28.6C238.681 28.6 239.447 28.9267 240.007 29.58C240.581 30.22 240.867 31.0933 240.867 32.2V38H239.267V32.4ZM245.475 34.4C245.475 35.1333 245.642 35.7 245.975 36.1C246.308 36.5 246.795 36.7 247.435 36.7C247.902 36.7 248.308 36.6067 248.655 36.42C249.015 36.22 249.288 35.9467 249.475 35.6C249.675 35.2533 249.775 34.8533 249.775 34.4V28.8H251.375V38H249.775V36.56C249.468 37.1067 249.088 37.52 248.635 37.8C248.182 38.0667 247.648 38.2 247.035 38.2C246.075 38.2 245.308 37.8733 244.735 37.22C244.162 36.5667 243.875 35.6933 243.875 34.6V28.8H245.475V34.4ZM254.383 25C254.383 24.6933 254.489 24.4333 254.703 24.22C254.929 24.0067 255.189 23.9 255.483 23.9C255.789 23.9 256.049 24.0067 256.263 24.22C256.476 24.4333 256.583 24.6933 256.583 25C256.583 25.2933 256.476 25.5533 256.263 25.78C256.049 25.9933 255.789 26.1 255.483 26.1C255.189 26.1 254.929 25.9933 254.703 25.78C254.489 25.5533 254.383 25.2933 254.383 25ZM254.683 28.8H256.283V38H254.683V28.8ZM264.478 28.8H266.278L263.138 33.26L266.478 38H264.678L262.278 34.52L259.878 38H258.078L261.418 33.26L258.278 28.8H260.078L262.278 32L264.478 28.8ZM274.797 28C274.797 27.4267 274.677 26.94 274.437 26.54C274.197 26.14 273.857 25.8333 273.417 25.62C272.977 25.4067 272.457 25.3 271.857 25.3C271.19 25.3 270.617 25.4533 270.137 25.76C269.67 26.0533 269.283 26.4533 268.977 26.96L267.677 26.14C267.983 25.6733 268.323 25.2667 268.697 24.92C269.07 24.56 269.523 24.2867 270.057 24.1C270.603 23.9 271.27 23.8 272.057 23.8C272.683 23.8 273.257 23.9067 273.777 24.12C274.31 24.3333 274.77 24.6333 275.157 25.02C275.557 25.3933 275.863 25.8333 276.077 26.34C276.303 26.8467 276.417 27.4 276.417 28C276.417 28.76 276.217 29.4533 275.817 30.08C275.417 30.6933 274.897 31.1933 274.257 31.58C273.617 31.9533 272.923 32.16 272.177 32.2L272.037 34.6H270.837L270.437 31.1H270.957C271.757 31.1 272.443 30.9467 273.017 30.64C273.59 30.3333 274.03 29.9467 274.337 29.48C274.643 29 274.797 28.5067 274.797 28ZM270.377 37.2C270.377 36.8933 270.483 36.6333 270.697 36.42C270.923 36.2067 271.183 36.1 271.477 36.1C271.783 36.1 272.043 36.2067 272.257 36.42C272.47 36.6333 272.577 36.8933 272.577 37.2C272.577 37.4933 272.47 37.7533 272.257 37.98C272.043 38.1933 271.783 38.3 271.477 38.3C271.183 38.3 270.923 38.1933 270.697 37.98C270.483 37.7533 270.377 37.4933 270.377 37.2Z" fill="white"/>
<path d="M166.905 16.9V15.7H174.105V16.9H166.905ZM173.25 11.5H174.525V22H173.25V11.5ZM166.2 11.5H167.475V22H166.2V11.5ZM179.518 22.15C178.878 22.15 178.308 22 177.808 21.7C177.318 21.39 176.933 20.965 176.653 20.425C176.383 19.885 176.248 19.26 176.248 18.55C176.248 17.83 176.388 17.2 176.668 16.66C176.958 16.12 177.358 15.7 177.868 15.4C178.388 15.1 178.988 14.95 179.668 14.95C180.348 14.95 180.928 15.095 181.408 15.385C181.898 15.665 182.273 16.07 182.533 16.6C182.793 17.13 182.923 17.76 182.923 18.49C182.923 18.56 182.918 18.635 182.908 18.715C182.908 18.785 182.908 18.83 182.908 18.85H177.013V17.83H181.963L181.483 18.52C181.513 18.47 181.543 18.395 181.573 18.295C181.603 18.185 181.618 18.095 181.618 18.025C181.618 17.615 181.533 17.26 181.363 16.96C181.203 16.66 180.978 16.425 180.688 16.255C180.398 16.085 180.058 16 179.668 16C179.208 16 178.813 16.1 178.483 16.3C178.163 16.49 177.913 16.77 177.733 17.14C177.563 17.5 177.473 17.945 177.463 18.475C177.463 19.015 177.548 19.475 177.718 19.855C177.888 20.235 178.138 20.525 178.468 20.725C178.798 20.925 179.198 21.025 179.668 21.025C180.138 21.025 180.553 20.925 180.913 20.725C181.273 20.515 181.578 20.2 181.828 19.78L182.803 20.395C182.443 20.975 181.988 21.415 181.438 21.715C180.898 22.005 180.258 22.15 179.518 22.15ZM189.823 15.1L185.323 25.3H183.973L185.863 21.025L183.223 15.1H184.648L186.838 20.5L186.343 20.44L188.473 15.1H189.823ZM191.329 11.5H192.829L192.529 19H191.629L191.329 11.5ZM191.254 21.4C191.254 21.17 191.334 20.975 191.494 20.815C191.664 20.655 191.859 20.575 192.079 20.575C192.309 20.575 192.504 20.655 192.664 20.815C192.824 20.975 192.904 21.17 192.904 21.4C192.904 21.62 192.824 21.815 192.664 21.985C192.504 22.145 192.309 22.225 192.079 22.225C191.859 22.225 191.664 22.145 191.494 21.985C191.334 21.815 191.254 21.62 191.254 21.4Z" fill="white"/>
</g>
<defs>
<filter id="filter0_f_3_10" x="-0.5" y="-0.5" width="381" height="160" filterUnits="userSpaceOnUse" color-interpolation-filters="sRGB">
<feFlood flood-opacity="0" result="BackgroundImageFix"/>
<feBlend mode="normal" in="SourceGraphic" in2="BackgroundImageFix" result="shape"/>
<feGaussianBlur stdDeviation="1.25" result="effect1_foregroundBlur_3_10"/>
</filter>
<clipPath id="clip0_3_10">
<rect width="378" height="162" fill="white"/>
</clipPath>
</defs>
</svg>
