<svg width="104" height="37" viewBox="0 0 104 37" fill="none" xmlns="http://www.w3.org/2000/svg">
<g clip-path="url(#clip0_3_9)">
<g filter="url(#filter0_f_3_9)">
<rect x="2" y="3" width="98" height="30" rx="11" fill="black" fill-opacity="0.38"/>
<rect x="2.5" y="3.5" width="97" height="29" rx="10.5" stroke="black"/>
</g>
<path d="M44.376 12.8H45.896L42.168 19.168V24H40.808V19.184L37.08 12.8H38.6L41.48 17.984L44.376 12.8ZM48.423 24.16C47.7403 24.16 47.1323 24 46.599 23.68C46.0763 23.3493 45.6657 22.896 45.367 22.32C45.079 21.744 44.935 21.0773 44.935 20.32C44.935 19.552 45.0843 18.88 45.383 18.304C45.6923 17.728 46.119 17.28 46.663 16.96C47.2177 16.64 47.8577 16.48 48.583 16.48C49.3083 16.48 49.927 16.6347 50.439 16.944C50.9617 17.2427 51.3617 17.6747 51.639 18.24C51.9163 18.8053 52.055 19.4773 52.055 20.256C52.055 20.3307 52.0497 20.4107 52.039 20.496C52.039 20.5707 52.039 20.6187 52.039 20.64H45.751V19.552H51.031L50.519 20.288C50.551 20.2347 50.583 20.1547 50.615 20.048C50.647 19.9307 50.663 19.8347 50.663 19.76C50.663 19.3227 50.5723 18.944 50.391 18.624C50.2203 18.304 49.9803 18.0533 49.671 17.872C49.3617 17.6907 48.999 17.6 48.583 17.6C48.0923 17.6 47.671 17.7067 47.319 17.92C46.9777 18.1227 46.711 18.4213 46.519 18.816C46.3377 19.2 46.2417 19.6747 46.231 20.24C46.231 20.816 46.3217 21.3067 46.503 21.712C46.6843 22.1173 46.951 22.4267 47.303 22.64C47.655 22.8533 48.0817 22.96 48.583 22.96C49.0843 22.96 49.527 22.8533 49.911 22.64C50.295 22.416 50.6203 22.08 50.887 21.632L51.927 22.288C51.543 22.9067 51.0577 23.376 50.471 23.696C49.895 24.0053 49.2123 24.16 48.423 24.16ZM54.1134 21.744C54.2627 21.968 54.4334 22.176 54.6254 22.368C54.8174 22.56 55.036 22.7147 55.2814 22.832C55.5374 22.9387 55.8147 22.992 56.1134 22.992C56.476 22.992 56.7587 22.912 56.9614 22.752C57.1747 22.5813 57.2814 22.352 57.2814 22.064C57.2814 21.808 57.196 21.5947 57.0254 21.424C56.8654 21.2427 56.6574 21.0933 56.4014 20.976C56.1454 20.848 55.8734 20.7307 55.5854 20.624C55.2654 20.496 54.94 20.3467 54.6094 20.176C54.2894 19.9947 54.0174 19.7653 53.7934 19.488C53.58 19.2 53.4734 18.8427 53.4734 18.416C53.4734 17.9787 53.5854 17.616 53.8094 17.328C54.044 17.04 54.3427 16.8267 54.7054 16.688C55.0787 16.5493 55.4627 16.48 55.8574 16.48C56.252 16.48 56.62 16.544 56.9614 16.672C57.3134 16.8 57.6227 16.9707 57.8894 17.184C58.156 17.3973 58.364 17.6427 58.5134 17.92L57.4894 18.576C57.2867 18.2987 57.0307 18.0693 56.7214 17.888C56.4227 17.7067 56.0814 17.616 55.6974 17.616C55.4307 17.616 55.2014 17.6747 55.0094 17.792C54.8174 17.9093 54.7214 18.0907 54.7214 18.336C54.7214 18.528 54.796 18.6987 54.9454 18.848C55.0947 18.9973 55.2867 19.1307 55.5214 19.248C55.756 19.3653 56.0014 19.4773 56.2574 19.584C56.684 19.7547 57.0734 19.9413 57.4254 20.144C57.7774 20.336 58.0547 20.5707 58.2574 20.848C58.4707 21.1253 58.5774 21.4827 58.5774 21.92C58.5774 22.56 58.3427 23.0933 57.8734 23.52C57.4147 23.9467 56.8067 24.16 56.0494 24.16C55.5587 24.16 55.116 24.0747 54.7214 23.904C54.3267 23.7227 53.9907 23.4933 53.7134 23.216C53.4467 22.9387 53.244 22.656 53.1054 22.368L54.1134 21.744ZM60.6625 12.8H62.2625L61.9425 20.8H60.9825L60.6625 12.8ZM60.5825 23.36C60.5825 23.1147 60.6678 22.9067 60.8385 22.736C61.0198 22.5653 61.2278 22.48 61.4625 22.48C61.7078 22.48 61.9158 22.5653 62.0865 22.736C62.2572 22.9067 62.3425 23.1147 62.3425 23.36C62.3425 23.5947 62.2572 23.8027 62.0865 23.984C61.9158 24.1547 61.7078 24.24 61.4625 24.24C61.2278 24.24 61.0198 24.1547 60.8385 23.984C60.6678 23.8027 60.5825 23.5947 60.5825 23.36Z" fill="white"/>
</g>
<defs>
<filter id="filter0_f_3_9" x="-0.5" y="0.5" width="103" height="35" filterUnits="userSpaceOnUse" color-interpolation-filters="sRGB">
<feFlood flood-opacity="0" result="BackgroundImageFix"/>
<feBlend mode="normal" in="SourceGraphic" in2="BackgroundImageFix" result="shape"/>
<feGaussianBlur stdDeviation="1.25" result="effect1_foregroundBlur_3_9"/>
</filter>
<clipPath id="clip0_3_9">
<rect width="104" height="37" fill="white"/>
</clipPath>
</defs>
</svg>
