<svg width="47" height="57" viewBox="0 0 47 57" fill="none" xmlns="http://www.w3.org/2000/svg">
<g clip-path="url(#clip0_5_43)">
<rect x="3" y="5.37036" width="35.6296" height="35.6296" rx="7" fill="url(#paint0_linear_5_43)"/>
<circle cx="21" cy="23" r="11" fill="#83FF31"/>
<circle cx="21" cy="23" r="7" fill="black"/>
</g>
<path d="M9.531 49.728C9.58233 49.8073 9.657 49.868 9.755 49.91C9.84833 49.9567 9.958 49.98 10.084 49.98C10.1913 49.98 10.2963 49.931 10.399 49.833C10.5063 49.7397 10.56 49.5787 10.56 49.35V44.1H11.12V49.42C11.12 49.6113 11.0943 49.777 11.043 49.917C10.9963 50.057 10.9263 50.1737 10.833 50.267C10.7397 50.3603 10.6253 50.428 10.49 50.47C10.3593 50.5167 10.2123 50.54 10.049 50.54C9.92767 50.54 9.811 50.519 9.699 50.477C9.58233 50.4397 9.48433 50.393 9.405 50.337C9.321 50.2857 9.26033 50.2367 9.223 50.19L9.531 49.728ZM11.9266 47.39C11.9266 47.0633 11.999 46.774 12.1436 46.522C12.293 46.27 12.4936 46.0717 12.7456 45.927C12.9976 45.7823 13.28 45.71 13.5926 45.71C13.91 45.71 14.1923 45.7823 14.4396 45.927C14.6916 46.0717 14.89 46.27 15.0346 46.522C15.184 46.774 15.2586 47.0633 15.2586 47.39C15.2586 47.712 15.184 48.0013 15.0346 48.258C14.89 48.51 14.6916 48.7083 14.4396 48.853C14.1923 48.9977 13.91 49.07 13.5926 49.07C13.28 49.07 12.9976 48.9977 12.7456 48.853C12.4936 48.7083 12.293 48.51 12.1436 48.258C11.999 48.0013 11.9266 47.712 11.9266 47.39ZM12.4936 47.39C12.4936 47.614 12.5403 47.8123 12.6336 47.985C12.7316 48.1577 12.8623 48.2953 13.0256 48.398C13.1936 48.496 13.3826 48.545 13.5926 48.545C13.8026 48.545 13.9893 48.496 14.1526 48.398C14.3206 48.2953 14.4513 48.1577 14.5446 47.985C14.6426 47.8123 14.6916 47.614 14.6916 47.39C14.6916 47.166 14.6426 46.9677 14.5446 46.795C14.4513 46.6177 14.3206 46.48 14.1526 46.382C13.9893 46.284 13.8026 46.235 13.5926 46.235C13.3826 46.235 13.1936 46.284 13.0256 46.382C12.8623 46.48 12.7316 46.6177 12.6336 46.795C12.5403 46.9677 12.4936 47.166 12.4936 47.39ZM15.9929 43.54H16.5529V49H15.9929V43.54ZM17.7429 45.78H18.4429L17.0429 47.11L18.5829 49H17.8829L16.3429 47.11L17.7429 45.78ZM20.2544 49.07C19.9557 49.07 19.6897 49 19.4564 48.86C19.2277 48.7153 19.0481 48.517 18.9174 48.265C18.7914 48.013 18.7284 47.7213 18.7284 47.39C18.7284 47.054 18.7937 46.76 18.9244 46.508C19.0597 46.256 19.2464 46.06 19.4844 45.92C19.7271 45.78 20.0071 45.71 20.3244 45.71C20.6417 45.71 20.9124 45.7777 21.1364 45.913C21.3651 46.0437 21.5401 46.2327 21.6614 46.48C21.7827 46.7273 21.8434 47.0213 21.8434 47.362C21.8434 47.3947 21.8411 47.4297 21.8364 47.467C21.8364 47.4997 21.8364 47.5207 21.8364 47.53H19.0854V47.054H21.3954L21.1714 47.376C21.1854 47.3527 21.1994 47.3177 21.2134 47.271C21.2274 47.2197 21.2344 47.1777 21.2344 47.145C21.2344 46.9537 21.1947 46.788 21.1154 46.648C21.0407 46.508 20.9357 46.3983 20.8004 46.319C20.6651 46.2397 20.5064 46.2 20.3244 46.2C20.1097 46.2 19.9254 46.2467 19.7714 46.34C19.6221 46.4287 19.5054 46.5593 19.4214 46.732C19.3421 46.9 19.3001 47.1077 19.2954 47.355C19.2954 47.607 19.3351 47.8217 19.4144 47.999C19.4937 48.1763 19.6104 48.3117 19.7644 48.405C19.9184 48.4983 20.1051 48.545 20.3244 48.545C20.5437 48.545 20.7374 48.4983 20.9054 48.405C21.0734 48.307 21.2157 48.16 21.3324 47.964L21.7874 48.251C21.6194 48.5217 21.4071 48.727 21.1504 48.867C20.8984 49.0023 20.5997 49.07 20.2544 49.07ZM23.1359 43.54V49H22.5759V43.54H23.1359ZM25.8309 47.39C25.8309 47.7353 25.7586 48.034 25.6139 48.286C25.4693 48.538 25.2756 48.7317 25.0329 48.867C24.7949 49.0023 24.5289 49.07 24.2349 49.07C23.9689 49.07 23.7333 49.0023 23.5279 48.867C23.3273 48.7317 23.1686 48.538 23.0519 48.286C22.9399 48.034 22.8839 47.7353 22.8839 47.39C22.8839 47.04 22.9399 46.7413 23.0519 46.494C23.1686 46.242 23.3273 46.0483 23.5279 45.913C23.7333 45.7777 23.9689 45.71 24.2349 45.71C24.5289 45.71 24.7949 45.7777 25.0329 45.913C25.2756 46.0483 25.4693 46.242 25.6139 46.494C25.7586 46.7413 25.8309 47.04 25.8309 47.39ZM25.2639 47.39C25.2639 47.1427 25.2126 46.9327 25.1099 46.76C25.0119 46.5873 24.8789 46.4567 24.7109 46.368C24.5476 46.2793 24.3656 46.235 24.1649 46.235C24.0016 46.235 23.8406 46.2793 23.6819 46.368C23.5233 46.4567 23.3926 46.5873 23.2899 46.76C23.1873 46.9327 23.1359 47.1427 23.1359 47.39C23.1359 47.6373 23.1873 47.8473 23.2899 48.02C23.3926 48.1927 23.5233 48.3233 23.6819 48.412C23.8406 48.5007 24.0016 48.545 24.1649 48.545C24.3656 48.545 24.5476 48.5007 24.7109 48.412C24.8789 48.3233 25.0119 48.1927 25.1099 48.02C25.2126 47.8473 25.2639 47.6373 25.2639 47.39ZM26.3231 47.39C26.3231 47.0633 26.3955 46.774 26.5401 46.522C26.6895 46.27 26.8901 46.0717 27.1421 45.927C27.3941 45.7823 27.6765 45.71 27.9891 45.71C28.3065 45.71 28.5888 45.7823 28.8361 45.927C29.0881 46.0717 29.2865 46.27 29.4311 46.522C29.5805 46.774 29.6551 47.0633 29.6551 47.39C29.6551 47.712 29.5805 48.0013 29.4311 48.258C29.2865 48.51 29.0881 48.7083 28.8361 48.853C28.5888 48.9977 28.3065 49.07 27.9891 49.07C27.6765 49.07 27.3941 48.9977 27.1421 48.853C26.8901 48.7083 26.6895 48.51 26.5401 48.258C26.3955 48.0013 26.3231 47.712 26.3231 47.39ZM26.8901 47.39C26.8901 47.614 26.9368 47.8123 27.0301 47.985C27.1281 48.1577 27.2588 48.2953 27.4221 48.398C27.5901 48.496 27.7791 48.545 27.9891 48.545C28.1991 48.545 28.3858 48.496 28.5491 48.398C28.7171 48.2953 28.8478 48.1577 28.9411 47.985C29.0391 47.8123 29.0881 47.614 29.0881 47.39C29.0881 47.166 29.0391 46.9677 28.9411 46.795C28.8478 46.6177 28.7171 46.48 28.5491 46.382C28.3858 46.284 28.1991 46.235 27.9891 46.235C27.7791 46.235 27.5901 46.284 27.4221 46.382C27.2588 46.48 27.1281 46.6177 27.0301 46.795C26.9368 46.9677 26.8901 47.166 26.8901 47.39ZM32.0369 45.78H32.6669L31.5679 47.341L32.7369 49H32.1069L31.2669 47.782L30.4269 49H29.7969L30.9659 47.341L29.8669 45.78H30.4969L31.2669 46.9L32.0369 45.78Z" fill="white"/>
<defs>
<linearGradient id="paint0_linear_5_43" x1="6" y1="7" x2="35.5" y2="38.5" gradientUnits="userSpaceOnUse">
<stop stop-color="#538432"/>
<stop offset="0.763736" stop-color="#83FF31"/>
</linearGradient>
<clipPath id="clip0_5_43">
<rect width="37" height="37" fill="white" transform="translate(3 4)"/>
</clipPath>
</defs>
</svg>
