<svg width="47" height="57" viewBox="0 0 47 57" fill="none" xmlns="http://www.w3.org/2000/svg">
<g clip-path="url(#clip0_5_51)">
<rect x="3" y="5.37036" width="35.6296" height="35.6296" rx="7" fill="url(#paint0_linear_5_51)"/>
<rect x="7.5" y="10.5" width="27" height="25" rx="5.5" fill="#343434" stroke="#3C3C3C"/>
<path d="M11.878 20.8537V21.1463H11.5854V20.8537H11.878ZM12.1707 20.8537V21.1463H11.878V20.8537H12.1707ZM12.1707 21.1463V21.439H11.878V21.1463H12.1707ZM12.1707 21.439V21.7317H11.878V21.439H12.1707ZM12.1707 21.7317V22.0244H11.878V21.7317H12.1707ZM11.878 21.7317V22.0244H11.5854V21.7317H11.878ZM11.878 22.0244V22.3171H11.5854V22.0244H11.878ZM11.878 21.439V21.7317H11.5854V21.439H11.878ZM11.878 21.1463V21.439H11.5854V21.1463H11.878ZM12.1707 22.0244V22.3171H11.878V22.0244H12.1707ZM12.4634 22.0244V22.3171H12.1707V22.0244H12.4634ZM12.4634 21.7317V22.0244H12.1707V21.7317H12.4634ZM12.4634 21.439V21.7317H12.1707V21.439H12.4634ZM12.4634 21.1463V21.439H12.1707V21.1463H12.4634ZM12.7561 21.1463V21.439H12.4634V21.1463H12.7561ZM12.7561 21.439V21.7317H12.4634V21.439H12.7561ZM12.7561 21.7317V22.0244H12.4634V21.7317H12.7561ZM12.7561 22.0244V22.3171H12.4634V22.0244H12.7561ZM12.7561 22.3171V22.6098H12.4634V22.3171H12.7561ZM12.4634 22.3171V22.6098H12.1707V22.3171H12.4634ZM13.0488 22.0244V22.3171H12.7561V22.0244H13.0488ZM13.0488 21.7317V22.0244H12.7561V21.7317H13.0488ZM13.0488 21.439V21.7317H12.7561V21.439H13.0488ZM13.3415 21.439V21.7317H13.0488V21.439H13.3415ZM13.3415 21.7317V22.0244H13.0488V21.7317H13.3415ZM13.3415 22.0244V22.3171H13.0488V22.0244H13.3415ZM13.3415 22.3171V22.6098H13.0488V22.3171H13.3415ZM13.0488 22.3171V22.6098H12.7561V22.3171H13.0488ZM13.0488 22.6098V22.9024H12.7561V22.6098H13.0488ZM13.3415 22.6098V22.9024H13.0488V22.6098H13.3415ZM13.6341 22.0244V22.3171H13.3415V22.0244H13.6341ZM13.6341 21.7317V22.0244H13.3415V21.7317H13.6341ZM13.9268 21.7317V22.0244H13.6341V21.7317H13.9268ZM13.9268 22.0244V22.3171H13.6341V22.0244H13.9268ZM13.9268 22.3171V22.6098H13.6341V22.3171H13.9268ZM13.9268 22.6098V22.9024H13.6341V22.6098H13.9268ZM13.9268 22.9024V23.1951H13.6341V22.9024H13.9268ZM13.6341 22.9024V23.1951H13.3415V22.9024H13.6341ZM13.6341 22.6098V22.9024H13.3415V22.6098H13.6341ZM13.6341 22.3171V22.6098H13.3415V22.3171H13.6341ZM14.2195 22.6098V22.9024H13.9268V22.6098H14.2195ZM14.2195 22.9024V23.1951H13.9268V22.9024H14.2195ZM14.5122 22.9024V23.1951H14.2195V22.9024H14.5122ZM14.5122 22.6098V22.9024H14.2195V22.6098H14.5122ZM14.5122 22.3171V22.6098H14.2195V22.3171H14.5122ZM14.5122 22.0244V22.3171H14.2195V22.0244H14.5122ZM14.2195 22.0244V22.3171H13.9268V22.0244H14.2195ZM14.2195 22.3171V22.6098H13.9268V22.3171H14.2195ZM14.2195 23.1951V23.4878H13.9268V23.1951H14.2195ZM14.2195 23.4878V23.7805H13.9268V23.4878H14.2195ZM14.5122 23.4878V23.7805H14.2195V23.4878H14.5122ZM14.5122 23.7805V24.0732H14.2195V23.7805H14.5122ZM14.5122 23.1951V23.4878H14.2195V23.1951H14.5122ZM14.2195 23.7805V24.0732H13.9268V23.7805H14.2195ZM13.9268 23.7805V24.0732H13.6341V23.7805H13.9268ZM13.0488 24.9512V25.2439H12.7561V24.9512H13.0488ZM13.3415 24.9512V25.2439H13.0488V24.9512H13.3415ZM13.3415 24.6585V24.9512H13.0488V24.6585H13.3415ZM13.6341 24.3659V24.6585H13.3415V24.3659H13.6341ZM13.6341 24.0732V24.3659H13.3415V24.0732H13.6341ZM13.6341 23.7805V24.0732H13.3415V23.7805H13.6341ZM13.3415 24.3659V24.6585H13.0488V24.3659H13.3415ZM13.0488 24.6585V24.9512H12.7561V24.6585H13.0488ZM13.0488 24.3659V24.6585H12.7561V24.3659H13.0488ZM13.0488 24.0732V24.3659H12.7561V24.0732H13.0488ZM13.3415 24.0732V24.3659H13.0488V24.0732H13.3415ZM12.7561 24.6585V24.9512H12.4634V24.6585H12.7561ZM12.7561 24.3659V24.6585H12.4634V24.3659H12.7561ZM12.4634 24.3659V24.6585H12.1707V24.3659H12.4634ZM12.4634 24.6585V24.9512H12.1707V24.6585H12.4634ZM12.1707 24.6585V24.9512H11.878V24.6585H12.1707ZM12.1707 24.9512V25.2439H11.878V24.9512H12.1707ZM11.878 24.9512V25.2439H11.5854V24.9512H11.878ZM11.878 24.6585V24.9512H11.5854V24.6585H11.878ZM11.878 25.2439V25.5366H11.5854V25.2439H11.878ZM11.878 25.5366V25.8293H11.5854V25.5366H11.878ZM12.1707 25.5366V25.8293H11.878V25.5366H12.1707ZM12.1707 25.8293V26.122H11.878V25.8293H12.1707ZM11.878 25.8293V26.122H11.5854V25.8293H11.878ZM12.4634 25.5366V25.8293H12.1707V25.5366H12.4634ZM12.7561 25.5366V25.8293H12.4634V25.5366H12.7561ZM12.7561 25.2439V25.5366H12.4634V25.2439H12.7561ZM12.4634 25.2439V25.5366H12.1707V25.2439H12.4634ZM12.1707 25.2439V25.5366H11.878V25.2439H12.1707ZM12.4634 24.9512V25.2439H12.1707V24.9512H12.4634ZM13.0488 25.2439V25.5366H12.7561V25.2439H13.0488ZM12.7561 24.9512V25.2439H12.4634V24.9512H12.7561ZM13.3415 25.2439V25.5366H13.0488V25.2439H13.3415ZM13.6341 24.9512V25.2439H13.3415V24.9512H13.6341ZM13.9268 24.9512V25.2439H13.6341V24.9512H13.9268ZM13.9268 24.6585V24.9512H13.6341V24.6585H13.9268ZM13.6341 24.6585V24.9512H13.3415V24.6585H13.6341ZM14.2195 24.6585V24.9512H13.9268V24.6585H14.2195ZM14.5122 24.6585V24.9512H14.2195V24.6585H14.5122ZM14.5122 24.3659V24.6585H14.2195V24.3659H14.5122ZM14.5122 24.0732V24.3659H14.2195V24.0732H14.5122ZM14.2195 24.0732V24.3659H13.9268V24.0732H14.2195ZM13.9268 24.0732V24.3659H13.6341V24.0732H13.9268ZM13.9268 24.3659V24.6585H13.6341V24.3659H13.9268ZM14.2195 24.3659V24.6585H13.9268V24.3659H14.2195ZM14.8049 22.3171V22.6098H14.5122V22.3171H14.8049ZM15.0976 22.3171V22.6098H14.8049V22.3171H15.0976ZM15.0976 22.6098V22.9024H14.8049V22.6098H15.0976ZM15.3902 22.6098V22.9024H15.0976V22.6098H15.3902ZM15.6829 22.6098V22.9024H15.3902V22.6098H15.6829ZM15.6829 22.9024V23.1951H15.3902V22.9024H15.6829ZM15.9756 22.9024V23.1951H15.6829V22.9024H15.9756ZM16.2683 22.9024V23.1951H15.9756V22.9024H16.2683ZM16.2683 23.1951V23.4878H15.9756V23.1951H16.2683ZM16.2683 23.4878V23.7805H15.9756V23.4878H16.2683ZM16.2683 23.7805V24.0732H15.9756V23.7805H16.2683ZM15.9756 23.7805V24.0732H15.6829V23.7805H15.9756ZM15.9756 23.4878V23.7805H15.6829V23.4878H15.9756ZM15.9756 23.1951V23.4878H15.6829V23.1951H15.9756ZM15.6829 23.4878V23.7805H15.3902V23.4878H15.6829ZM15.6829 23.7805V24.0732H15.3902V23.7805H15.6829ZM15.6829 24.0732V24.3659H15.3902V24.0732H15.6829ZM15.3902 24.0732V24.3659H15.0976V24.0732H15.3902ZM15.0976 24.0732V24.3659H14.8049V24.0732H15.0976ZM15.0976 24.3659V24.6585H14.8049V24.3659H15.0976ZM14.8049 24.3659V24.6585H14.5122V24.3659H14.8049ZM14.8049 24.0732V24.3659H14.5122V24.0732H14.8049ZM14.8049 23.7805V24.0732H14.5122V23.7805H14.8049ZM15.0976 23.7805V24.0732H14.8049V23.7805H15.0976ZM15.3902 23.7805V24.0732H15.0976V23.7805H15.3902ZM15.3902 23.4878V23.7805H15.0976V23.4878H15.3902ZM15.6829 23.1951V23.4878H15.3902V23.1951H15.6829ZM15.3902 23.1951V23.4878H15.0976V23.1951H15.3902ZM15.0976 23.1951V23.4878H14.8049V23.1951H15.0976ZM15.0976 23.4878V23.7805H14.8049V23.4878H15.0976ZM14.8049 23.1951V23.4878H14.5122V23.1951H14.8049ZM14.8049 22.9024V23.1951H14.5122V22.9024H14.8049ZM14.8049 22.6098V22.9024H14.5122V22.6098H14.8049ZM15.0976 22.9024V23.1951H14.8049V22.9024H15.0976ZM15.3902 22.9024V23.1951H15.0976V22.9024H15.3902ZM14.8049 23.4878V23.7805H14.5122V23.4878H14.8049ZM17.7374 26.7073V27H17.4447V26.7073H17.7374ZM18.0301 26.7073V27H17.7374V26.7073H18.0301ZM18.3228 26.7073V27H18.0301V26.7073H18.3228ZM18.6155 26.7073V27H18.3228V26.7073H18.6155ZM18.6155 26.4146V26.7073H18.3228V26.4146H18.6155ZM18.6155 26.122V26.4146H18.3228V26.122H18.6155ZM18.6155 25.8293V26.122H18.3228V25.8293H18.6155ZM18.9082 25.8293V26.122H18.6155V25.8293H18.9082ZM18.9082 26.122V26.4146H18.6155V26.122H18.9082ZM18.9082 26.4146V26.7073H18.6155V26.4146H18.9082ZM18.9082 26.7073V27H18.6155V26.7073H18.9082ZM18.9082 25.5366V25.8293H18.6155V25.5366H18.9082ZM18.6155 25.5366V25.8293H18.3228V25.5366H18.6155ZM18.3228 25.5366V25.8293H18.0301V25.5366H18.3228ZM18.0301 25.5366V25.8293H17.7374V25.5366H18.0301ZM18.0301 25.8293V26.122H17.7374V25.8293H18.0301ZM17.7374 25.5366V25.8293H17.4447V25.5366H17.7374ZM17.7374 25.8293V26.122H17.4447V25.8293H17.7374ZM17.7374 26.122V26.4146H17.4447V26.122H17.7374ZM17.7374 26.4146V26.7073H17.4447V26.4146H17.7374ZM18.0301 26.4146V26.7073H17.7374V26.4146H18.0301ZM18.3228 26.4146V26.7073H18.0301V26.4146H18.3228ZM18.3228 26.122V26.4146H18.0301V26.122H18.3228ZM18.3228 25.8293V26.122H18.0301V25.8293H18.3228ZM18.0301 26.122V26.4146H17.7374V26.122H18.0301ZM20.3741 26.7073V27H20.0815V26.7073H20.3741ZM20.6668 26.7073V27H20.3741V26.7073H20.6668ZM20.9595 26.7073V27H20.6668V26.7073H20.9595ZM21.2522 26.7073V27H20.9595V26.7073H21.2522ZM21.2522 26.4146V26.7073H20.9595V26.4146H21.2522ZM21.2522 26.122V26.4146H20.9595V26.122H21.2522ZM21.2522 25.8293V26.122H20.9595V25.8293H21.2522ZM21.5449 25.8293V26.122H21.2522V25.8293H21.5449ZM21.5449 26.122V26.4146H21.2522V26.122H21.5449ZM21.5449 26.4146V26.7073H21.2522V26.4146H21.5449ZM21.5449 26.7073V27H21.2522V26.7073H21.5449ZM21.5449 25.5366V25.8293H21.2522V25.5366H21.5449ZM21.2522 25.5366V25.8293H20.9595V25.5366H21.2522ZM20.9595 25.5366V25.8293H20.6668V25.5366H20.9595ZM20.6668 25.5366V25.8293H20.3741V25.5366H20.6668ZM20.6668 25.8293V26.122H20.3741V25.8293H20.6668ZM20.3741 25.5366V25.8293H20.0815V25.5366H20.3741ZM20.3741 25.8293V26.122H20.0815V25.8293H20.3741ZM20.3741 26.122V26.4146H20.0815V26.122H20.3741ZM20.3741 26.4146V26.7073H20.0815V26.4146H20.3741ZM20.6668 26.4146V26.7073H20.3741V26.4146H20.6668ZM20.9595 26.4146V26.7073H20.6668V26.4146H20.9595ZM20.9595 26.122V26.4146H20.6668V26.122H20.9595ZM20.9595 25.8293V26.122H20.6668V25.8293H20.9595ZM20.6668 26.122V26.4146H20.3741V26.122H20.6668ZM23.0109 26.7073V27H22.7182V26.7073H23.0109ZM23.3035 26.7073V27H23.0109V26.7073H23.3035ZM23.5962 26.7073V27H23.3035V26.7073H23.5962ZM23.8889 26.7073V27H23.5962V26.7073H23.8889ZM23.8889 26.4146V26.7073H23.5962V26.4146H23.8889ZM23.8889 26.122V26.4146H23.5962V26.122H23.8889ZM23.8889 25.8293V26.122H23.5962V25.8293H23.8889ZM24.1816 25.8293V26.122H23.8889V25.8293H24.1816ZM24.1816 26.122V26.4146H23.8889V26.122H24.1816ZM24.1816 26.4146V26.7073H23.8889V26.4146H24.1816ZM24.1816 26.7073V27H23.8889V26.7073H24.1816ZM24.1816 25.5366V25.8293H23.8889V25.5366H24.1816ZM23.8889 25.5366V25.8293H23.5962V25.5366H23.8889ZM23.5962 25.5366V25.8293H23.3035V25.5366H23.5962ZM23.3035 25.5366V25.8293H23.0109V25.5366H23.3035ZM23.3035 25.8293V26.122H23.0109V25.8293H23.3035ZM23.0109 25.5366V25.8293H22.7182V25.5366H23.0109ZM23.0109 25.8293V26.122H22.7182V25.8293H23.0109ZM23.0109 26.122V26.4146H22.7182V26.122H23.0109ZM23.0109 26.4146V26.7073H22.7182V26.4146H23.0109ZM23.3035 26.4146V26.7073H23.0109V26.4146H23.3035ZM23.5962 26.4146V26.7073H23.3035V26.4146H23.5962ZM23.5962 26.122V26.4146H23.3035V26.122H23.5962ZM23.5962 25.8293V26.122H23.3035V25.8293H23.5962ZM23.3035 26.122V26.4146H23.0109V26.122H23.3035Z" fill="white"/>
</g>
<path d="M8.56 45.1H9.155V50H8.56V45.1ZM8.889 45.66V45.1H9.89C10.2073 45.1 10.4897 45.1607 10.737 45.282C10.989 45.3987 11.1873 45.5667 11.332 45.786C11.4813 46.0053 11.556 46.2667 11.556 46.57C11.556 46.8687 11.4813 47.13 11.332 47.354C11.1873 47.5733 10.989 47.7437 10.737 47.865C10.4897 47.9817 10.2073 48.04 9.89 48.04H8.889V47.48H9.89C10.2073 47.48 10.464 47.403 10.66 47.249C10.8607 47.095 10.961 46.8687 10.961 46.57C10.961 46.2667 10.8607 46.0403 10.66 45.891C10.464 45.737 10.2073 45.66 9.89 45.66H8.889ZM13.394 50.07C13.0954 50.07 12.8294 50 12.596 49.86C12.3674 49.7153 12.1877 49.517 12.057 49.265C11.931 49.013 11.868 48.7213 11.868 48.39C11.868 48.054 11.9334 47.76 12.064 47.508C12.1994 47.256 12.386 47.06 12.624 46.92C12.8667 46.78 13.1467 46.71 13.464 46.71C13.7814 46.71 14.052 46.7777 14.276 46.913C14.5047 47.0437 14.6797 47.2327 14.801 47.48C14.9224 47.7273 14.983 48.0213 14.983 48.362C14.983 48.3947 14.9807 48.4297 14.976 48.467C14.976 48.4997 14.976 48.5207 14.976 48.53H12.225V48.054H14.535L14.311 48.376C14.325 48.3527 14.339 48.3177 14.353 48.271C14.367 48.2197 14.374 48.1777 14.374 48.145C14.374 47.9537 14.3344 47.788 14.255 47.648C14.1804 47.508 14.0754 47.3983 13.94 47.319C13.8047 47.2397 13.646 47.2 13.464 47.2C13.2494 47.2 13.065 47.2467 12.911 47.34C12.7617 47.4287 12.645 47.5593 12.561 47.732C12.4817 47.9 12.4397 48.1077 12.435 48.355C12.435 48.607 12.4747 48.8217 12.554 48.999C12.6334 49.1763 12.75 49.3117 12.904 49.405C13.058 49.4983 13.2447 49.545 13.464 49.545C13.6834 49.545 13.877 49.4983 14.045 49.405C14.213 49.307 14.3554 49.16 14.472 48.964L14.927 49.251C14.759 49.5217 14.5467 49.727 14.29 49.867C14.038 50.0023 13.7394 50.07 13.394 50.07ZM17.8156 48.04C17.8156 47.774 17.7573 47.5733 17.6406 47.438C17.5239 47.3027 17.3536 47.235 17.1296 47.235C16.9663 47.235 16.8216 47.27 16.6956 47.34C16.5743 47.4053 16.4786 47.4987 16.4086 47.62C16.3433 47.7413 16.3106 47.8813 16.3106 48.04V50H15.7506V46.78H16.3106V47.284C16.4179 47.088 16.5509 46.9433 16.7096 46.85C16.8729 46.7567 17.0596 46.71 17.2696 46.71C17.6103 46.71 17.8786 46.8243 18.0746 47.053C18.2753 47.277 18.3756 47.5827 18.3756 47.97V50H17.8156V48.04ZM19.5613 49.013C19.6267 49.111 19.7013 49.202 19.7853 49.286C19.8693 49.37 19.965 49.4377 20.0723 49.489C20.1843 49.5357 20.3057 49.559 20.4363 49.559C20.595 49.559 20.7187 49.524 20.8073 49.454C20.9007 49.3793 20.9473 49.279 20.9473 49.153C20.9473 49.041 20.91 48.9477 20.8353 48.873C20.7653 48.7937 20.6743 48.7283 20.5623 48.677C20.4503 48.621 20.3313 48.5697 20.2053 48.523C20.0653 48.467 19.923 48.4017 19.7783 48.327C19.6383 48.2477 19.5193 48.1473 19.4213 48.026C19.328 47.9 19.2813 47.7437 19.2813 47.557C19.2813 47.3657 19.3303 47.207 19.4283 47.081C19.531 46.955 19.6617 46.8617 19.8203 46.801C19.9837 46.7403 20.1517 46.71 20.3243 46.71C20.497 46.71 20.658 46.738 20.8073 46.794C20.9613 46.85 21.0967 46.9247 21.2133 47.018C21.33 47.1113 21.421 47.2187 21.4863 47.34L21.0383 47.627C20.9497 47.5057 20.8377 47.4053 20.7023 47.326C20.5717 47.2467 20.4223 47.207 20.2543 47.207C20.1377 47.207 20.0373 47.2327 19.9533 47.284C19.8693 47.3353 19.8273 47.4147 19.8273 47.522C19.8273 47.606 19.86 47.6807 19.9253 47.746C19.9907 47.8113 20.0747 47.8697 20.1773 47.921C20.28 47.9723 20.3873 48.0213 20.4993 48.068C20.686 48.1427 20.8563 48.2243 21.0103 48.313C21.1643 48.397 21.2857 48.4997 21.3743 48.621C21.4677 48.7423 21.5143 48.8987 21.5143 49.09C21.5143 49.37 21.4117 49.6033 21.2063 49.79C21.0057 49.9767 20.7397 50.07 20.4083 50.07C20.1937 50.07 20 50.0327 19.8273 49.958C19.6547 49.8787 19.5077 49.7783 19.3863 49.657C19.2697 49.5357 19.181 49.412 19.1203 49.286L19.5613 49.013ZM21.9716 48.39C21.9716 48.0633 22.0439 47.774 22.1886 47.522C22.3379 47.27 22.5386 47.0717 22.7906 46.927C23.0426 46.7823 23.3249 46.71 23.6376 46.71C23.9549 46.71 24.2372 46.7823 24.4846 46.927C24.7366 47.0717 24.9349 47.27 25.0796 47.522C25.2289 47.774 25.3036 48.0633 25.3036 48.39C25.3036 48.712 25.2289 49.0013 25.0796 49.258C24.9349 49.51 24.7366 49.7083 24.4846 49.853C24.2372 49.9977 23.9549 50.07 23.6376 50.07C23.3249 50.07 23.0426 49.9977 22.7906 49.853C22.5386 49.7083 22.3379 49.51 22.1886 49.258C22.0439 49.0013 21.9716 48.712 21.9716 48.39ZM22.5386 48.39C22.5386 48.614 22.5852 48.8123 22.6786 48.985C22.7766 49.1577 22.9072 49.2953 23.0706 49.398C23.2386 49.496 23.4276 49.545 23.6376 49.545C23.8476 49.545 24.0342 49.496 24.1976 49.398C24.3656 49.2953 24.4962 49.1577 24.5896 48.985C24.6876 48.8123 24.7366 48.614 24.7366 48.39C24.7366 48.166 24.6876 47.9677 24.5896 47.795C24.4962 47.6177 24.3656 47.48 24.1976 47.382C24.0342 47.284 23.8476 47.235 23.6376 47.235C23.4276 47.235 23.2386 47.284 23.0706 47.382C22.9072 47.48 22.7766 47.6177 22.6786 47.795C22.5852 47.9677 22.5386 48.166 22.5386 48.39ZM26.2059 49.013C26.2712 49.111 26.3459 49.202 26.4299 49.286C26.5139 49.37 26.6095 49.4377 26.7169 49.489C26.8289 49.5357 26.9502 49.559 27.0809 49.559C27.2395 49.559 27.3632 49.524 27.4519 49.454C27.5452 49.3793 27.5919 49.279 27.5919 49.153C27.5919 49.041 27.5545 48.9477 27.4799 48.873C27.4099 48.7937 27.3189 48.7283 27.2069 48.677C27.0949 48.621 26.9759 48.5697 26.8499 48.523C26.7099 48.467 26.5675 48.4017 26.4229 48.327C26.2829 48.2477 26.1639 48.1473 26.0659 48.026C25.9725 47.9 25.9259 47.7437 25.9259 47.557C25.9259 47.3657 25.9749 47.207 26.0729 47.081C26.1755 46.955 26.3062 46.8617 26.4649 46.801C26.6282 46.7403 26.7962 46.71 26.9689 46.71C27.1415 46.71 27.3025 46.738 27.4519 46.794C27.6059 46.85 27.7412 46.9247 27.8579 47.018C27.9745 47.1113 28.0655 47.2187 28.1309 47.34L27.6829 47.627C27.5942 47.5057 27.4822 47.4053 27.3469 47.326C27.2162 47.2467 27.0669 47.207 26.8989 47.207C26.7822 47.207 26.6819 47.2327 26.5979 47.284C26.5139 47.3353 26.4719 47.4147 26.4719 47.522C26.4719 47.606 26.5045 47.6807 26.5699 47.746C26.6352 47.8113 26.7192 47.8697 26.8219 47.921C26.9245 47.9723 27.0319 48.0213 27.1439 48.068C27.3305 48.1427 27.5009 48.2243 27.6549 48.313C27.8089 48.397 27.9302 48.4997 28.0189 48.621C28.1122 48.7423 28.1589 48.8987 28.1589 49.09C28.1589 49.37 28.0562 49.6033 27.8509 49.79C27.6502 49.9767 27.3842 50.07 27.0529 50.07C26.8382 50.07 26.6445 50.0327 26.4719 49.958C26.2992 49.8787 26.1522 49.7783 26.0309 49.657C25.9142 49.5357 25.8255 49.412 25.7649 49.286L26.2059 49.013ZM28.8961 44.54H29.4561V50H28.8961V44.54ZM31.7554 50.07C31.4567 50.07 31.1907 50 30.9574 49.86C30.7287 49.7153 30.549 49.517 30.4184 49.265C30.2924 49.013 30.2294 48.7213 30.2294 48.39C30.2294 48.054 30.2947 47.76 30.4254 47.508C30.5607 47.256 30.7474 47.06 30.9854 46.92C31.228 46.78 31.508 46.71 31.8254 46.71C32.1427 46.71 32.4134 46.7777 32.6374 46.913C32.866 47.0437 33.041 47.2327 33.1624 47.48C33.2837 47.7273 33.3444 48.0213 33.3444 48.362C33.3444 48.3947 33.342 48.4297 33.3374 48.467C33.3374 48.4997 33.3374 48.5207 33.3374 48.53H30.5864V48.054H32.8964L32.6724 48.376C32.6864 48.3527 32.7004 48.3177 32.7144 48.271C32.7284 48.2197 32.7354 48.1777 32.7354 48.145C32.7354 47.9537 32.6957 47.788 32.6164 47.648C32.5417 47.508 32.4367 47.3983 32.3014 47.319C32.166 47.2397 32.0074 47.2 31.8254 47.2C31.6107 47.2 31.4264 47.2467 31.2724 47.34C31.123 47.4287 31.0064 47.5593 30.9224 47.732C30.843 47.9 30.801 48.1077 30.7964 48.355C30.7964 48.607 30.836 48.8217 30.9154 48.999C30.9947 49.1763 31.1114 49.3117 31.2654 49.405C31.4194 49.4983 31.606 49.545 31.8254 49.545C32.0447 49.545 32.2384 49.4983 32.4064 49.405C32.5744 49.307 32.7167 49.16 32.8334 48.964L33.2884 49.251C33.1204 49.5217 32.908 49.727 32.6514 49.867C32.3994 50.0023 32.1007 50.07 31.7554 50.07Z" fill="white"/>
<defs>
<linearGradient id="paint0_linear_5_51" x1="6" y1="7" x2="35.5" y2="38.5" gradientUnits="userSpaceOnUse">
<stop stop-color="#282828"/>
<stop offset="0.763736" stop-color="#8E8E8E"/>
</linearGradient>
<clipPath id="clip0_5_51">
<rect width="37" height="37" fill="white" transform="translate(3 4)"/>
</clipPath>
</defs>
</svg>
